<mxfile host="app.diagrams.net" modified="2022-08-10T10:26:54.387Z" agent="5.0 (Windows NT 10.0; Win64; x64) AppleWebKit/537.36 (KHTML, like Gecko) Chrome/103.0.0.0 Safari/537.36" etag="5JG0WhUgKi9fS7crryOs" version="20.2.3" type="github" pages="2">
  <diagram id="C5RBs43oDa-KdzZeNtuy" name="Page-1">
    <mxGraphModel dx="989" dy="466" grid="1" gridSize="10" guides="1" tooltips="1" connect="1" arrows="1" fold="1" page="1" pageScale="1" pageWidth="827" pageHeight="1169" math="0" shadow="0">
      <root>
        <mxCell id="WIyWlLk6GJQsqaUBKTNV-0" />
        <mxCell id="WIyWlLk6GJQsqaUBKTNV-1" parent="WIyWlLk6GJQsqaUBKTNV-0" />
        <mxCell id="CW76UBPz4ZGPSiF1o6f0-4" style="edgeStyle=orthogonalEdgeStyle;rounded=0;orthogonalLoop=1;jettySize=auto;html=1;exitX=1;exitY=0.5;exitDx=0;exitDy=0;entryX=0;entryY=0.5;entryDx=0;entryDy=0;" edge="1" parent="WIyWlLk6GJQsqaUBKTNV-1" source="WIyWlLk6GJQsqaUBKTNV-3" target="CW76UBPz4ZGPSiF1o6f0-1">
          <mxGeometry relative="1" as="geometry" />
        </mxCell>
        <mxCell id="WIyWlLk6GJQsqaUBKTNV-3" value="Select &quot;Square&quot; button" style="rounded=1;whiteSpace=wrap;html=1;fontSize=12;glass=0;strokeWidth=1;shadow=0;" parent="WIyWlLk6GJQsqaUBKTNV-1" vertex="1">
          <mxGeometry x="90" y="120" width="70" height="50" as="geometry" />
        </mxCell>
        <mxCell id="CW76UBPz4ZGPSiF1o6f0-16" style="edgeStyle=orthogonalEdgeStyle;rounded=0;orthogonalLoop=1;jettySize=auto;html=1;exitX=1;exitY=0.5;exitDx=0;exitDy=0;entryX=0;entryY=0.25;entryDx=0;entryDy=0;" edge="1" parent="WIyWlLk6GJQsqaUBKTNV-1" source="CW76UBPz4ZGPSiF1o6f0-0" target="CW76UBPz4ZGPSiF1o6f0-2">
          <mxGeometry relative="1" as="geometry" />
        </mxCell>
        <mxCell id="CW76UBPz4ZGPSiF1o6f0-0" value="Press left mouse button" style="rounded=1;whiteSpace=wrap;html=1;fontSize=12;glass=0;strokeWidth=1;shadow=0;" vertex="1" parent="WIyWlLk6GJQsqaUBKTNV-1">
          <mxGeometry x="350" y="120" width="70" height="50" as="geometry" />
        </mxCell>
        <mxCell id="CW76UBPz4ZGPSiF1o6f0-7" style="edgeStyle=orthogonalEdgeStyle;rounded=0;orthogonalLoop=1;jettySize=auto;html=1;exitX=1;exitY=0.5;exitDx=0;exitDy=0;entryX=0;entryY=0.5;entryDx=0;entryDy=0;" edge="1" parent="WIyWlLk6GJQsqaUBKTNV-1" source="CW76UBPz4ZGPSiF1o6f0-1" target="CW76UBPz4ZGPSiF1o6f0-5">
          <mxGeometry relative="1" as="geometry" />
        </mxCell>
        <mxCell id="CW76UBPz4ZGPSiF1o6f0-1" value="Move mouse to initial point" style="rounded=1;whiteSpace=wrap;html=1;fontSize=12;glass=0;strokeWidth=1;shadow=0;" vertex="1" parent="WIyWlLk6GJQsqaUBKTNV-1">
          <mxGeometry x="180" y="120" width="70" height="50" as="geometry" />
        </mxCell>
        <mxCell id="CW76UBPz4ZGPSiF1o6f0-15" style="edgeStyle=orthogonalEdgeStyle;rounded=0;orthogonalLoop=1;jettySize=auto;html=1;exitX=1;exitY=0.25;exitDx=0;exitDy=0;entryX=0;entryY=0.5;entryDx=0;entryDy=0;" edge="1" parent="WIyWlLk6GJQsqaUBKTNV-1" source="CW76UBPz4ZGPSiF1o6f0-2" target="CW76UBPz4ZGPSiF1o6f0-6">
          <mxGeometry relative="1" as="geometry" />
        </mxCell>
        <mxCell id="CW76UBPz4ZGPSiF1o6f0-2" value="While holding left mouse button, move cursor to desired location of opposite corner of bounding box of the shape, while observing the rubber-banding effect" style="rounded=1;whiteSpace=wrap;html=1;fontSize=12;glass=0;strokeWidth=1;shadow=0;" vertex="1" parent="WIyWlLk6GJQsqaUBKTNV-1">
          <mxGeometry x="450" y="100" width="100" height="180" as="geometry" />
        </mxCell>
        <mxCell id="CW76UBPz4ZGPSiF1o6f0-14" style="edgeStyle=orthogonalEdgeStyle;rounded=0;orthogonalLoop=1;jettySize=auto;html=1;exitX=0.5;exitY=0;exitDx=0;exitDy=0;entryX=0.5;entryY=0;entryDx=0;entryDy=0;" edge="1" parent="WIyWlLk6GJQsqaUBKTNV-1" source="CW76UBPz4ZGPSiF1o6f0-3" target="CW76UBPz4ZGPSiF1o6f0-1">
          <mxGeometry relative="1" as="geometry">
            <Array as="points">
              <mxPoint x="695" y="80" />
              <mxPoint x="215" y="80" />
            </Array>
          </mxGeometry>
        </mxCell>
        <mxCell id="CW76UBPz4ZGPSiF1o6f0-3" value="When desired shape (and therefore endpoint) haas been obtained, release mouse. Repeat as desired, saving each new shape to ArrayList." style="rounded=1;whiteSpace=wrap;html=1;fontSize=12;glass=0;strokeWidth=1;shadow=0;" vertex="1" parent="WIyWlLk6GJQsqaUBKTNV-1">
          <mxGeometry x="670" y="100" width="90" height="160" as="geometry" />
        </mxCell>
        <mxCell id="CW76UBPz4ZGPSiF1o6f0-8" style="edgeStyle=orthogonalEdgeStyle;rounded=0;orthogonalLoop=1;jettySize=auto;html=1;exitX=0.5;exitY=1;exitDx=0;exitDy=0;entryX=0.5;entryY=1;entryDx=0;entryDy=0;" edge="1" parent="WIyWlLk6GJQsqaUBKTNV-1" source="CW76UBPz4ZGPSiF1o6f0-5" target="CW76UBPz4ZGPSiF1o6f0-1">
          <mxGeometry relative="1" as="geometry" />
        </mxCell>
        <mxCell id="CW76UBPz4ZGPSiF1o6f0-9" style="edgeStyle=orthogonalEdgeStyle;rounded=0;orthogonalLoop=1;jettySize=auto;html=1;exitX=1;exitY=0.5;exitDx=0;exitDy=0;entryX=0;entryY=0.5;entryDx=0;entryDy=0;" edge="1" parent="WIyWlLk6GJQsqaUBKTNV-1" source="CW76UBPz4ZGPSiF1o6f0-5" target="CW76UBPz4ZGPSiF1o6f0-0">
          <mxGeometry relative="1" as="geometry" />
        </mxCell>
        <mxCell id="CW76UBPz4ZGPSiF1o6f0-5" value="@ loc?" style="rhombus;whiteSpace=wrap;html=1;" vertex="1" parent="WIyWlLk6GJQsqaUBKTNV-1">
          <mxGeometry x="270" y="120" width="50" height="50" as="geometry" />
        </mxCell>
        <mxCell id="CW76UBPz4ZGPSiF1o6f0-13" style="edgeStyle=orthogonalEdgeStyle;rounded=0;orthogonalLoop=1;jettySize=auto;html=1;exitX=0.5;exitY=1;exitDx=0;exitDy=0;entryX=0.5;entryY=1;entryDx=0;entryDy=0;" edge="1" parent="WIyWlLk6GJQsqaUBKTNV-1" source="CW76UBPz4ZGPSiF1o6f0-6" target="CW76UBPz4ZGPSiF1o6f0-2">
          <mxGeometry relative="1" as="geometry" />
        </mxCell>
        <mxCell id="CW76UBPz4ZGPSiF1o6f0-34" style="edgeStyle=orthogonalEdgeStyle;rounded=0;orthogonalLoop=1;jettySize=auto;html=1;exitX=1;exitY=0.5;exitDx=0;exitDy=0;entryX=0;entryY=0.25;entryDx=0;entryDy=0;" edge="1" parent="WIyWlLk6GJQsqaUBKTNV-1" source="CW76UBPz4ZGPSiF1o6f0-6" target="CW76UBPz4ZGPSiF1o6f0-3">
          <mxGeometry relative="1" as="geometry" />
        </mxCell>
        <mxCell id="CW76UBPz4ZGPSiF1o6f0-6" value="@ loc?" style="rhombus;whiteSpace=wrap;html=1;" vertex="1" parent="WIyWlLk6GJQsqaUBKTNV-1">
          <mxGeometry x="580" y="120" width="50" height="50" as="geometry" />
        </mxCell>
        <mxCell id="CW76UBPz4ZGPSiF1o6f0-17" value="Yes" style="text;html=1;strokeColor=none;fillColor=none;align=center;verticalAlign=middle;whiteSpace=wrap;rounded=0;" vertex="1" parent="WIyWlLk6GJQsqaUBKTNV-1">
          <mxGeometry x="300" y="110" width="60" height="30" as="geometry" />
        </mxCell>
        <mxCell id="CW76UBPz4ZGPSiF1o6f0-21" value="Yes" style="text;html=1;strokeColor=none;fillColor=none;align=center;verticalAlign=middle;whiteSpace=wrap;rounded=0;" vertex="1" parent="WIyWlLk6GJQsqaUBKTNV-1">
          <mxGeometry x="610" y="120" width="60" height="30" as="geometry" />
        </mxCell>
        <mxCell id="CW76UBPz4ZGPSiF1o6f0-26" value="No" style="text;html=1;strokeColor=none;fillColor=none;align=center;verticalAlign=middle;whiteSpace=wrap;rounded=0;" vertex="1" parent="WIyWlLk6GJQsqaUBKTNV-1">
          <mxGeometry x="260" y="190" width="60" height="30" as="geometry" />
        </mxCell>
        <mxCell id="CW76UBPz4ZGPSiF1o6f0-27" value="No" style="text;html=1;strokeColor=none;fillColor=none;align=center;verticalAlign=middle;whiteSpace=wrap;rounded=0;" vertex="1" parent="WIyWlLk6GJQsqaUBKTNV-1">
          <mxGeometry x="580" y="300" width="60" height="30" as="geometry" />
        </mxCell>
        <mxCell id="CW76UBPz4ZGPSiF1o6f0-30" value="Note that for all bounded shapes (including lines), this state logic applies. It also works for the drag and drop function as well as the copy and paste tool." style="text;html=1;strokeColor=none;fillColor=none;align=center;verticalAlign=middle;whiteSpace=wrap;rounded=0;" vertex="1" parent="WIyWlLk6GJQsqaUBKTNV-1">
          <mxGeometry x="191" y="400" width="400" height="70" as="geometry" />
        </mxCell>
      </root>
    </mxGraphModel>
  </diagram>
  <diagram id="Y4I8RKaR_yLSIKRmyQa8" name="Page-2">
    <mxGraphModel dx="1038" dy="489" grid="1" gridSize="10" guides="1" tooltips="1" connect="1" arrows="1" fold="1" page="1" pageScale="1" pageWidth="850" pageHeight="1100" math="0" shadow="0">
      <root>
        <mxCell id="0" />
        <mxCell id="1" parent="0" />
      </root>
    </mxGraphModel>
  </diagram>
</mxfile>
